<svg xmlns="http://www.w3.org/2000/svg" width="10" height="9" viewBox="0 0 10 9" fill="none">
  <path d="M6.11803 8.43051C5.80854 8.74388 5.30262 8.74388 4.99312 8.43052C4.68901 8.12261 4.68902 7.6274 4.99312 7.31949L7.77781 4.50001L4.9931 1.68051C4.68899 1.3726 4.68899 0.877394 4.9931 0.569483C5.3026 0.256117 5.80851 0.256117 6.11801 0.569483L9.30597 3.79729C9.69066 4.18678 9.69066 4.81319 9.30598 5.20269L6.11803 8.43051Z" fill="#2A2A2A"/>
  <path d="M1.67358 8.43051C1.36409 8.74388 0.858175 8.74388 0.548676 8.43051C0.244568 8.1226 0.244568 7.6274 0.548677 7.31949L3.33336 4.50001L0.548655 1.68051C0.244546 1.3726 0.244546 0.877394 0.548656 0.569483C0.858154 0.256117 1.36407 0.256117 1.67357 0.569483L4.86153 3.79729C5.24621 4.18678 5.24622 4.81319 4.86153 5.20269L1.67358 8.43051Z" fill="#2A2A2A"/>
</svg>