<svg xmlns="http://www.w3.org/2000/svg" width="34" height="34" viewBox="0 0 34 34" fill="none">
  <path d="M31.1667 25.5071C31.1667 26.2863 30.5349 26.9167 29.7571 26.9167H18.4096C18.0358 26.9167 17.6772 26.7682 17.4129 26.5038C17.1486 26.2395 17 25.8809 17 25.5071C17 25.1332 17.1486 24.7747 17.4129 24.5104C17.6772 24.246 18.0358 24.0975 18.4096 24.0975H29.7571C30.5363 24.0975 31.1667 24.7279 31.1667 25.5071ZM31.1667 17C31.1667 17.7792 30.5349 18.4096 29.7571 18.4096H4.24296C3.86911 18.4096 3.51058 18.2611 3.24623 17.9967C2.98188 17.7324 2.83337 17.3739 2.83337 17C2.83337 16.6262 2.98188 16.2676 3.24623 16.0033C3.51058 15.7389 3.86911 15.5904 4.24296 15.5904H29.7571C30.5363 15.5904 31.1667 16.2223 31.1667 17ZM29.7571 9.90251C30.131 9.90251 30.4895 9.754 30.7539 9.48965C31.0182 9.2253 31.1667 8.86677 31.1667 8.49293C31.1667 8.11908 31.0182 7.76055 30.7539 7.4962C30.4895 7.23185 30.131 7.08334 29.7571 7.08334H12.743C12.5578 7.08334 12.3746 7.1198 12.2035 7.19064C12.0325 7.26148 11.8771 7.36531 11.7462 7.4962C11.6153 7.62709 11.5115 7.78248 11.4407 7.9535C11.3698 8.12452 11.3334 8.30782 11.3334 8.49293C11.3334 8.67804 11.3698 8.86133 11.4407 9.03235C11.5115 9.20337 11.6153 9.35876 11.7462 9.48965C11.8771 9.62054 12.0325 9.72437 12.2035 9.79521C12.3746 9.86605 12.5578 9.90251 12.743 9.90251H29.7571Z" fill="black"/>
</svg>